# AST/ASF file generated using VICON BodyLanguage
# -----------------------------------------------
:version 1.10
:name VICON
:units
  mass 1.0
  length 0.45
  angle deg
:documentation
   .ast/.asf automatically generated from VICON data using
   VICON BodyBuilder and BodyLanguage model FoxedUp or BRILLIANT.MOD
:root
   order TX TY TZ RX RY RZ
   axis XYZ
   position 0 0 0  
   orientation 0 0 0 
:bonedata
  begin
     id 1 
     name lhipjoint
     direction 0.602128 -0.715006 0.355257 
     length 2.21237 
     axis 0 0 0  XYZ
  end
  begin
     id 2 
     name lfemur
     direction 0.34202 -0.939693 0  
     length 6.71649  
     axis 0 0 20  XYZ
    dof rx ry rz
    limits (-160.0 20.0)
           (-70.0 70.0)
           (-60.0 70.0)
  end
  begin
     id 3 
     name ltibia
     direction 0.34202 -0.939693 0   
     length 6.97123   
     axis 0 0 20   XYZ
    dof rx
    limits (-10.0 170.0)
  end
  begin
     id 4 
     name lfoot
     direction 0.0655697 -0.180151 0.981451   
     length 1.80924   
     axis -90 7.62852e-016 20   XYZ
    dof rx rz
    limits (-45.0 90.0)
           (-70.0 20.0)
  end
  begin
     id 5 
     name ltoes
     direction 1.53545e-011 -4.21827e-011 1   
     length 0.916331   
     axis -90 7.62852e-016 20   XYZ
    dof rx
    limits (-90.0 20.0)
  end
  begin
     id 6 
     name rhipjoint
     direction -0.625414 -0.698792 0.347201   
     length 2.2637  
     axis 0 0 0  XYZ 
  end
  begin
     id 7 
     name rfemur
     direction -0.34202 -0.939693 0   
     length 7.07595   
     axis 0 0 -20   XYZ
    dof rx ry rz
    limits (-160.0 20.0)
           (-70.0 70.0)
           (-70.0 60.0)
  end
  begin
     id 8 
     name rtibia
     direction -0.34202 -0.939693 0   
     length 7.22924   
     axis 0 0 -20   XYZ
    dof rx
    limits (-10.0 170.0)
 end
 begin
     id 9 
     name rfoot
     direction -0.0766747 -0.210662 0.974547   
     length 1.98482  
     axis -90 -7.62852e-016 -20   XYZ
    dof rx rz
    limits (-45.0 90.0)
           (-20.0 70.0)
  end
  begin
     id 10 
     name rtoes
     direction -1.53532e-011 -4.21867e-011 1   
     length 0.999842   
     axis -90 -7.62852e-016 -20   XYZ
    dof rx
    limits (-90.0 20.0)
  end
  begin
     id 11 
     name lowerback
     direction -0.0224668 0.997354 -0.0691422   
     length 2.09945   
     axis 0 0 0   XYZ
    dof rx ry rz
    limits (-20.0 45.0)
           (-30.0 30.0)
           (-30.0 30.0)
  end
  begin
     id 12 
     name upperback
     direction 0.0134698 0.998451 -0.0539888   
     length 2.09758   
     axis 0 0 0   XYZ
    dof rx ry rz
    limits (-20.0 45.0)
           (-30.0 30.0)
           (-30.0 30.0)
  end
  begin
     id 13 
     name thorax
     direction 0.0241905 0.99948 -0.0213333   
     length 2.10428   
     axis 0 0 0   XYZ
    dof rx ry rz
    limits (-20.0 45.0)
           (-30.0 30.0)
           (-30.0 30.0)
  end
  begin
     id 14 
     name lowerneck
     direction -0.00866847 0.995978 0.0891737   
     length 1.3959   
     axis 0 0 0   XYZ
    dof rx ry rz
    limits (-20.0 45.0)
           (-30.0 30.0)
           (-30.0 30.0)
  end
  begin
     id 15 
     name upperneck
     direction 0.0680679 0.992203 0.104404   
     length 1.39452   
     axis 0 0 0   XYZ
    dof rx ry rz
    limits (-20.0 45.0)
           (-30.0 30.0)
           (-30.0 30.0)
  end
  begin
     id 16
     name head
     direction 0.0242216 0.999358 0.0264054  
     length 1.40433  
     axis 0 0 0   XYZ
    dof rx ry rz
    limits (-20.0 45.0)
           (-30.0 30.0)
           (-30.0 30.0)
  end
  begin
     id 17 
     name lclavicle
     direction 0.929368 0.362991 -0.0671771  
     length 3.04887  
     axis 0 0 0   XYZ
    dof ry rz
    limits (-20.0 10.0)
           (0.0 20.0)
  end
  begin
     id 18 
     name lhumerus
     direction 1 -4.48967e-011 -7.13741e-028   
     length 4.77195   
     axis -180 -30 -90   XYZ
    dof rx ry rz
    limits (-60.0 90.0)
           (-90.0 90.0)
           (-90.0 90.0)
  end
  begin
     id 19
     name lradius
     direction 1 -4.48977e-011 3.60404e-027   
     length 2.98444   
     axis -180 -30 -90   XYZ
    dof rx
    limits (-10.0 170.0)
  end
  begin
     id 20
     name lwrist
     direction 1 -4.48997e-011 7.54877e-027   
     length 1.49222   
     axis -7.18178e-015 90 90   XYZ
    dof ry
    limits (-180.0 0.0)
 end
  begin
     id 21 
     name lhand
     direction 1 -4.489e-011 1.51105e-026   
     length 0.992285   
     axis -9.63605e-015 90 90   XYZ
    dof rx rz
    limits (-90.0 90.0)
           (-45.0 45.0)
  end
  begin
     id 22 
     name lfingers
     direction 1 -4.48998e-011 3.01948e-026   
     length 0.800006   
     axis -1.92718e-014 90 90   XYZ
    dof rx
    limits (0.0 90.0)
  end
  begin
     id 23
     name lthumb
     direction 0.707107 -6.34881e-011 0.707107   
     length 1.14865   
     axis -90 45 -3.53137e-014   XYZ
    dof rx rz
    limits (-45.0 45.0)
           (-45.0 45.0)
  end
  begin
     id 24 
     name rclavicle
     direction -0.945672 0.324529 0.0196374   
     length 3.4236  
     axis 0 0 0   XYZ 
    dof ry rz
    limits (-10.0 20.0)
           (-20.0 0.0)
  end
  begin
     id 25 
     name rhumerus
     direction -1 -4.4896e-011 1.02757e-029  
     length 4.62052   
     axis -180 30 90   XYZ
    dof rx ry rz
    limits (-90.0 60.0)
           (-90.0 90.0)
           (-90.0 90.0)
  end
  begin
     id 26 
     name rradius
     direction -1 -4.48982e-011 3.85962e-027   
     length 2.95332   
     axis -180 30 90   XYZ
    dof rx
    limits (-10.0 170.0)
  end
  begin
     id 27 
     name rwrist
     direction -1 -4.48961e-011 7.55118e-027   
     length 1.47666   
     axis -7.18178e-015 -90 -90   XYZ
    dof ry
    limits (-180.0 0.0)
  end
  begin
     id 28
     name rhand
     direction -1 -4.48984e-011 1.50994e-026   
     length 0.990956   
     axis -9.63605e-015 -90 -90   XYZ
    dof rx rz
    limits (-90.0 90.0)
           (-45.0 45.0)
  end
  begin
     id 29
     name rfingers
     direction -1 -4.4892e-011 3.02158e-026   
     length 0.798934   
     axis -1.92718e-014 -90 -90   XYZ
    dof rx
    limits (0.0 90.0)
  end
  begin
     id 30
     name rthumb
     direction -0.707107 -6.34916e-011 0.707107   
     length 1.14711   
     axis -90 -45 3.53137e-014   XYZ
    dof rx rz
    limits (-45.0 45.0)
           (-45.0 45.0)
  end
:hierarchy
  begin
    root lhipjoint rhipjoint lowerback
    lhipjoint lfemur
    lfemur ltibia
    ltibia lfoot
    lfoot ltoes
    rhipjoint rfemur
    rfemur rtibia
    rtibia rfoot
    rfoot rtoes
    lowerback upperback
    upperback thorax
    thorax lowerneck lclavicle rclavicle
    lowerneck upperneck
    upperneck head
    lclavicle lhumerus
    lhumerus lradius
    lradius lwrist
    lwrist lhand lthumb
    lhand lfingers
    rclavicle rhumerus
    rhumerus rradius
    rradius rwrist
    rwrist rhand rthumb
    rhand rfingers
  end

#!OML:ASF H:\ManfredObstacles\Project 1\Capture day 1\Session 1\Male.ASF
:FULLY-SPECIFIED
:DEGREES
316
root -5.18954 16.5958 -10.9884 -171.689 -53.8572 -177.966
lowerback -12.2607 -5.019 -2.77219
upperback 1.33351 -6.5748 3.03258
thorax 8.9943 -3.41987 3.46861
lowerneck 0.971258 -3.70418 -3.18152
upperneck -6.39345 -4.78643 7.88832
head -1.92512 -2.57481 3.20422
rclavicle -4.83544e-014 -1.98785e-015
rhumerus -35.9928 -22.056 -71.9871
rradius 28.8247
rwrist 28.5545
rhand -0.15759 -5.51828
rfingers 7.12502
rthumb 25.4394 -33.8406
lclavicle -4.83544e-014 -1.98785e-015
lhumerus -32.5784 38.8634 72.251
lradius 11.9447
lwrist -58.7869
lhand -8.1876 7.29725
lfingers 7.12502
lthumb 17.7283 36.5091
rfemur -30.0205 -6.03398 23.7036
rtibia 28.226
rfoot -10.5642 9.95657
rtoes 24.2632
lfemur 8.34254 -9.63089 -13.5141
ltibia 10.9424
lfoot 14.1301 -11.4005
ltoes 14.2303
317
root -5.22328 16.6042 -11.092 -171.397 -53.8642 -178.236
lowerback -12.1277 -4.9385 -2.95693
upperback 1.41212 -6.43958 3.0121
thorax 9.0101 -3.36428 3.5862
lowerneck 0.825729 -3.715 -3.45958
upperneck -6.74324 -4.79027 8.17215
head -2.00232 -2.58592 3.3591
rclavicle -4.48259e-014 -5.24792e-014
rhumerus -35.3198 -21.7009 -72.3541
rradius 29.0812
rwrist 28.4844
rhand -0.289023 -5.75602
rfingers 7.12502
rthumb 25.3135 -34.0963
lclavicle -4.48259e-014 -5.24792e-014
lhumerus -31.5295 37.4936 73.7088
lradius 12.2052
lwrist -56.8796
lhand -8.33341 7.36921
lfingers 7.12502
lthumb 17.588 36.5937
rfemur -29.8291 -6.10998 23.7491
rtibia 28.3836
rfoot -10.9135 10.2159
rtoes 25.2591
lfemur 8.49609 -9.60171 -13.4714
ltibia 10.8408
lfoot 14.9788 -11.1854
ltoes 13.2418
318
root -5.26377 16.6142 -11.187 -170.789 -53.8283 -178.895
lowerback -12.0595 -4.90035 -3.31486
upperback 1.48816 -6.32851 2.94611
thorax 9.07649 -3.32722 3.74161
lowerneck 0.536822 -3.6307 -3.52302
upperneck -6.9143 -4.67454 8.18525
head -2.01232 -2.52847 3.37033
rclavicle 1.19271e-014 -1.07344e-014
rhumerus -34.5885 -21.1942 -72.6884
rradius 29.1548
rwrist 28.386
rhand -0.556512 -5.87139
rfingers 7.12502
rthumb 25.0572 -34.2477
lclavicle 1.19271e-014 -1.07344e-014
lhumerus -30.357 35.7023 75.4306
lradius 12.5447
lwrist -54.3145
lhand -8.44971 7.49543
lfingers 7.12502
lthumb 17.4761 36.7299
rfemur -29.6171 -6.31866 23.5028
rtibia 28.4675
rfoot -11.1821 10.6672
rtoes 26.5036
lfemur 8.5574 -9.48627 -13.7235
ltibia 10.9752
lfoot 15.6779 -10.9785
ltoes 12.9302
319
root -5.2831 16.6215 -11.2703 -170.834 -53.9711 -178.58
lowerback -11.8866 -4.8626 -3.14523
upperback 1.46615 -6.31489 3.01734
thorax 8.94068 -3.31449 3.7398
lowerneck 0.405824 -3.5059 -3.30014
upperneck -7.08939 -4.50597 8.02626
head -2.06447 -2.44965 3.27414
rclavicle -2.32081e-014 6.75868e-015
rhumerus -33.8043 -20.7737 -73.0553
rradius 28.9155
rwrist 28.4536
rhand -0.812007 -5.86628
rfingers 7.12502
rthumb 24.8124 -34.2765
lclavicle -2.32081e-014 6.75868e-015
lhumerus -29.2421 33.6448 77.0908
lradius 12.9718
lwrist -51.5773
lhand -8.54579 7.64313
lfingers 7.12502
lthumb 17.3836 36.8858
rfemur -29.5689 -6.25162 23.8913
rtibia 28.4703
rfoot -11.5841 10.7942
rtoes 26.9349
lfemur 8.34773 -9.3634 -13.204
ltibia 11.0629
lfoot 16.4832 -10.8175
ltoes 12.5009
320
root -5.30404 16.6266 -11.352 -170.81 -54.173 -178.436
lowerback -11.769 -4.79366 -2.97529
upperback 1.45989 -6.24681 2.98861
thorax 8.83617 -3.27141 3.6376
lowerneck 0.624399 -3.51382 -3.44532
upperneck -7.44201 -4.50456 8.21798
head -2.2151 -2.463 3.38548
rclavicle 2.75814e-014 -2.62396e-014
rhumerus -33.1209 -20.6896 -73.3817
rradius 28.5623
rwrist 28.673
rhand -0.963749 -5.88414
rfingers 7.12502
rthumb 24.667 -34.3143
lclavicle 2.75814e-014 -2.62396e-014
lhumerus -27.9294 30.1321 79.2516
lradius 13.5552
lwrist -47.7355
lhand -8.59712 7.53034
lfingers 7.12502
lthumb 17.3342 36.7773
rfemur -29.3848 -6.21388 24.1492
rtibia 28.4185
rfoot -12.1452 10.801
rtoes 26.7197
lfemur 8.21215 -9.30534 -12.8223
ltibia 11.154
lfoot 17.2509 -10.6146
ltoes 12.406
321
root -5.33043 16.6332 -11.4299 -170.412 -54.2761 -178.809
lowerback -11.7241 -4.65452 -3.03638
upperback 1.46602 -6.03955 2.87255
thorax 8.78934 -3.16883 3.59435
lowerneck 0.444848 -3.44647 -3.32948
upperneck -7.39415 -4.417 8.10138
head -2.17628 -2.41557 3.31551
rclavicle 6.16232e-014 -1.39149e-014
rhumerus -32.6075 -20.7638 -73.5764
rradius 28.265
rwrist 28.8818
rhand -1.03186 -5.87093
rfingers 7.12502
rthumb 24.6017 -34.31
lclavicle 6.16232e-014 -1.39149e-014
lhumerus -26.7548 26.565 81.3184
lradius 14.1851
lwrist -44.206
lhand -8.6757 7.16318
lfingers 7.12502
lthumb 17.2586 36.4168
rfemur -29.092 -6.067 23.997
rtibia 28.2444
rfoot -12.4926 10.7151
rtoes 27.4171
lfemur 8.02323 -9.21335 -12.8405
ltibia 11.5604
lfoot 17.724 -10.6162
ltoes 12.0975
322
root -5.35756 16.6396 -11.5105 -170.115 -54.8657 -178.999
lowerback -11.8322 -4.59669 -2.92694
upperback 1.47431 -5.96236 2.74414
thorax 8.82578 -3.12066 3.4043
lowerneck 0.296456 -3.45437 -3.48897
upperneck -7.32755 -4.42468 8.28096
head -2.12066 -2.41689 3.40042
rclavicle 2.95692e-014 -2.78299e-015
rhumerus -32.3147 -21.0151 -73.7837
rradius 28.1092
rwrist 29.1845
rhand -1.07076 -5.8525
rfingers 7.12502
rthumb 24.5644 -34.2966
lclavicle 2.95692e-014 -2.78299e-015
lhumerus -25.8827 24.6996 82.5141
lradius 14.7149
lwrist -42.8983
lhand -8.48005 7.36666
lfingers 7.12502
lthumb 17.4469 36.6037
rfemur -28.8348 -6.42696 24.0604
rtibia 28.0524
rfoot -12.7611 10.6734
rtoes 28.4563
lfemur 7.72169 -9.22435 -12.5504
ltibia 11.8454
lfoot 18.521 -10.7922
ltoes 12.0496
323
root -5.37429 16.6442 -11.5726 -170.008 -55.0915 -178.829
lowerback -11.9451 -4.55704 -2.80075
upperback 1.50081 -5.93802 2.84679
thorax 8.91571 -3.10774 3.43985
lowerneck -0.0144256 -3.30549 -3.60852
upperneck -7.27126 -4.23117 8.1523
head -2.05843 -2.30738 3.36558
rclavicle 5.40694e-014 -3.10104e-014
rhumerus -31.6493 -20.8016 -74.0826
rradius 27.9102
rwrist 29.5141
rhand -1.07906 -5.85901
rfingers 7.12502
rthumb 24.5564 -34.3042
lclavicle 5.40694e-014 -3.10104e-014
lhumerus -24.9272 23.2215 83.8556
lradius 15.3638
lwrist -41.6475
lhand -7.91841 8.57401
lfingers 7.12502
lthumb 17.9873 37.7622
rfemur -28.7903 -6.40356 24.316
rtibia 27.8771
rfoot -12.9605 10.5609
rtoes 28.8857
lfemur 7.4246 -9.10733 -12.1733
ltibia 11.9509
lfoot 19.2652 -10.5447
ltoes 11.9814
324
root -5.39039 16.6522 -11.6277 -169.909 -55.4676 -178.622
lowerback -12.0755 -4.55489 -2.58205
upperback 1.48037 -5.97843 2.95661
thorax 8.96126 -3.12088 3.41817
lowerneck -0.242219 -3.15314 -3.70646
upperneck -7.22703 -4.03423 7.93424
head -2.01738 -2.19514 3.29943
rclavicle 2.65874e-014 -2.22639e-014
rhumerus -31.0913 -20.5966 -74.3556
rradius 27.7102
rwrist 29.7733
rhand -1.07924 -5.76186
rfingers 7.12502
rthumb 24.5563 -34.2071
lclavicle 2.65874e-014 -2.22639e-014
lhumerus -24.0106 20.8119 85.4416
lradius 16.167
lwrist -39.5843
lhand -7.5101 9.2708
lfingers 7.12502
lthumb 18.3802 38.4224
rfemur -28.7923 -6.72058 24.6541
rtibia 27.6949
rfoot -13.2731 10.5742
rtoes 27.2326
lfemur 7.05176 -9.03227 -11.7716
ltibia 12.0379
lfoot 19.9536 -10.412
ltoes 11.5235
325
root -5.40998 16.6636 -11.6793 -169.51 -55.9177 -178.871
lowerback -12.1427 -4.61255 -2.56184
upperback 1.46283 -6.05803 2.96465
thorax 8.98683 -3.15825 3.39439
lowerneck -0.500103 -2.97023 -3.77755
upperneck -7.13806 -3.79641 7.72411
head -1.95899 -2.06275 3.22937
rclavicle 3.47873e-016 -7.15625e-015
rhumerus -30.6578 -20.2026 -74.7559
rradius 27.5973
rwrist 29.8271
rhand -1.19317 -5.70953
rfingers 7.12502
rthumb 24.447 -34.1696
lclavicle 3.47873e-016 -7.15625e-015
lhumerus -23.2264 18.5507 86.7882
lradius 16.9558
lwrist -37.7272
lhand -7.68062 8.36829
lfingers 7.12502
lthumb 18.2161 37.5353
rfemur -28.752 -7.39329 24.7414
rtibia 27.5427
rfoot -13.4403 10.9123
rtoes 26.5759
lfemur 6.76995 -9.17729 -11.7056
ltibia 12.106
lfoot 20.502 -10.2073
ltoes 11.516
326
root -5.42831 16.6727 -11.7338 -169.063 -56.3316 -179.319
lowerback -12.0976 -4.65697 -2.67484
upperback 1.46457 -6.09465 2.91419
thorax 8.97261 -3.17922 3.39884
lowerneck -0.674758 -2.78025 -3.82313
upperneck -7.14788 -3.5463 7.55394
head -1.94851 -1.93002 3.17385
rclavicle -1.08835e-013 3.18055e-014
rhumerus -30.3681 -19.7836 -75.2148
rradius 27.6098
rwrist 29.8053
rhand -1.27091 -5.78471
rfingers 7.12502
rthumb 24.3725 -34.2548
lclavicle -1.08835e-013 3.18055e-014
lhumerus -22.4914 16.4148 87.9531
lradius 17.6923
lwrist -36.063
lhand -7.95114 7.56147
lfingers 7.12502
lthumb 17.9558 36.7526
rfemur -28.5871 -7.89237 24.6395
rtibia 27.4469
rfoot -13.6198 11.1634
rtoes 27.1804
lfemur 6.72606 -9.40444 -11.7923
ltibia 12.0332
lfoot 20.9699 -9.91459
ltoes 11.5896
327
root -5.44098 16.6756 -11.782 -168.539 -56.575 -179.898
lowerback -12.018 -4.56103 -2.83156
upperback 1.46364 -5.93214 2.81166
thorax 8.91576 -3.10374 3.41703
lowerneck -0.615312 -2.69976 -3.95472
upperneck -7.38222 -3.43889 7.43444
head -2.04308 -1.87458 3.16465
rclavicle -1.62059e-013 1.90833e-014
rhumerus -30.1956 -19.6146 -75.5162
rradius 27.6354
rwrist 29.8137
rhand -1.12803 -5.78814
rfingers 7.12502
rthumb 24.5095 -34.2397
lclavicle -1.62059e-013 1.90833e-014
lhumerus -21.7827 14.2594 89.1218
lradius 18.4267
lwrist -34.4683
lhand -7.93348 7.65542
lfingers 7.12502
lthumb 17.9728 36.845
rfemur -28.4149 -8.18491 24.4449
rtibia 27.3476
rfoot -13.8944 11.1961
rtoes 27.0726
lfemur 6.7522 -9.45342 -11.9904
ltibia 11.8831
lfoot 21.4228 -9.59889
ltoes 11.3267
328
root -5.45102 16.6798 -11.8265 -168.081 -56.7686 -180.341
lowerback -11.9747 -4.37125 -2.84503
upperback 1.431 -5.66088 2.66547
thorax 8.81474 -2.96605 3.32967
lowerneck -0.662538 -2.67864 -4.04077
upperneck -7.44207 -3.41134 7.35559
head -2.05593 -1.85608 3.15384
rclavicle -3.95581e-014 1.23246e-014
rhumerus -30.1533 -19.5253 -75.7939
rradius 27.6641
rwrist 29.818
rhand -0.966661 -5.71835
rfingers 7.12502
rthumb 24.6642 -34.1489
lclavicle -3.95581e-014 1.23246e-014
lhumerus -21.2476 11.8241 90.2247
lradius 19.2764
lwrist -32.6691
lhand -7.90765 7.74634
lfingers 7.12502
lthumb 17.9977 36.9336
rfemur -28.322 -8.32302 24.3164
rtibia 27.2579
rfoot -14.1808 11.0807
rtoes 26.4346
lfemur 6.74079 -9.30916 -12.077
ltibia 11.677
lfoot 21.841 -9.53437
ltoes 10.5981
329
root -5.46754 16.6853 -11.8686 -168.41 -56.9587 -179.982
lowerback -11.8528 -4.12199 -2.31338
upperback 1.41414 -5.4008 2.58584
thorax 8.64132 -2.81057 3.00962
lowerneck -0.742158 -2.62237 -4.20656
upperneck -7.39539 -3.33246 7.42503
head -2.02844 -1.8114 3.20504
rclavicle 2.02263e-014 -8.34896e-015
rhumerus -30.1976 -19.3623 -76.1329
rradius 27.6653
rwrist 29.8085
rhand -1.02002 -5.64995
rfingers 7.12502
rthumb 24.613 -34.0875
lclavicle 2.02263e-014 -8.34896e-015
lhumerus -20.8918 9.24564 91.2631
lradius 20.2067
lwrist -30.639
lhand -8.06707 7.82397
lfingers 7.12502
lthumb 17.8443 37.0253
rfemur -28.0638 -8.33415 24.604
rtibia 27.1669
rfoot -14.4089 10.9816
rtoes 26.2017
lfemur 6.92298 -9.09004 -11.7009
ltibia 11.4985
lfoot 22.2419 -9.58607
ltoes 10.2871
